<svg width="235" height="38" viewBox="0 0 235 38" fill="none" xmlns="http://www.w3.org/2000/svg">
<g clip-path="url(#clip0_861_254)">
<path d="M69.9758 16.5611C69.5237 15.4516 68.8251 14.5886 67.8799 13.9311C66.8937 13.3146 65.743 12.9859 64.3869 12.9859C62.5787 12.9859 61.1403 13.5612 60.0308 14.6708C58.9212 15.8214 58.387 17.3009 58.387 19.109C58.387 20.9172 58.9212 22.3966 60.0308 23.5062C61.1403 24.6569 62.5787 25.2322 64.3869 25.2322C65.743 25.2322 66.8937 24.9034 67.8799 24.2459C68.8251 23.6295 69.5237 22.7665 69.9758 21.6569H74.9072C74.6606 22.8487 74.2497 23.9583 73.6332 24.9445C73.0168 25.9719 72.236 26.8349 71.3319 27.5335C70.4278 28.2321 69.4005 28.8075 68.2087 29.1773C67.0169 29.5883 65.743 29.7938 64.3869 29.7938C62.7841 29.7938 61.3047 29.5472 59.9897 28.9719C58.6335 28.4376 57.4829 27.6979 56.5377 26.7527C55.5514 25.8075 54.8117 24.698 54.2775 23.3829C53.7432 22.0679 53.4556 20.6296 53.4556 19.109C53.4556 17.5885 53.7432 16.1502 54.2775 14.8351C54.8117 13.5201 55.5514 12.3694 56.5377 11.4243C57.4829 10.5202 58.6335 9.78045 59.9897 9.20512C61.3047 8.67089 62.7841 8.42432 64.3869 8.42432C65.743 8.42432 67.0169 8.62979 68.2087 8.99965C69.4005 9.4106 70.4278 9.98593 71.3319 10.6845C72.236 11.3832 73.0168 12.2462 73.6332 13.2324C74.2497 14.2598 74.6606 15.3694 74.9072 16.5611H69.9758Z" fill="url(#paint0_linear_861_254)"/>
<path d="M83.6603 29.2595H78.77V0.0820312H83.6603V11.6708H83.7425C84.3589 10.6846 85.1398 9.90375 86.1671 9.28733C87.1945 8.71199 88.3452 8.42433 89.7013 8.42433C90.8931 8.42433 92.0026 8.6298 93.1122 8.99966C94.2218 9.41061 95.167 10.027 96.0299 10.8489C96.8929 11.6708 97.5505 12.7393 98.0847 14.0133C98.5778 15.3283 98.8244 16.8899 98.8244 18.6981V29.2595H93.9341V18.6981C93.9341 16.7666 93.4821 15.3283 92.5369 14.3831C91.5917 13.4379 90.3588 12.9859 88.7972 12.9859C87.2767 12.9859 86.0438 13.479 85.0987 14.4242C84.1535 15.3694 83.6603 16.8077 83.6603 18.6981V29.2595Z" fill="url(#paint1_linear_861_254)"/>
<path d="M118.016 29.2595V18.6981C118.016 16.7666 117.564 15.3283 116.618 14.3831C115.673 13.4379 114.44 12.9859 112.879 12.9859C111.317 12.9859 110.084 13.4379 109.139 14.3831C108.194 15.3283 107.742 16.7666 107.742 18.6981V29.2595H102.852V18.6981C102.852 17.0132 103.098 15.4927 103.591 14.2187C104.043 12.9448 104.742 11.8763 105.605 11.0133C106.468 10.1914 107.536 9.53388 108.769 9.08184C110.002 8.62979 111.358 8.42432 112.879 8.42432C114.399 8.42432 115.755 8.62979 116.988 9.04074C118.221 9.49279 119.29 10.1092 120.153 10.9722C121.016 11.8352 121.714 12.9448 122.207 14.2187C122.659 15.4927 122.906 17.0132 122.906 18.6981V29.2595H118.016Z" fill="url(#paint2_linear_861_254)"/>
<path d="M132.523 0.0820312H127.632V29.2595H132.523V0.0820312Z" fill="url(#paint3_linear_861_254)"/>
<path d="M140.495 29.7938C139.591 29.7938 138.81 29.465 138.194 28.8486C137.577 28.2322 137.249 27.4514 137.249 26.5473C137.249 25.6432 137.577 24.8624 138.194 24.246C138.81 23.6295 139.591 23.3008 140.495 23.3008C141.399 23.3008 142.18 23.6295 142.796 24.246C143.413 24.8624 143.742 25.6432 143.742 26.5473C143.742 27.4514 143.413 28.2322 142.796 28.8486C142.18 29.465 141.399 29.7938 140.495 29.7938Z" fill="url(#paint4_linear_861_254)"/>
<path d="M147.769 19.2734C147.769 17.6296 148.057 16.1502 148.591 14.7941C149.125 13.479 149.824 12.3283 150.81 11.3832C151.755 10.438 152.865 9.73936 154.221 9.20512C155.536 8.67089 157.015 8.42432 158.618 8.42432C160.221 8.42432 161.659 8.67089 163.015 9.20512C164.371 9.78045 165.522 10.5202 166.508 11.4243C167.454 12.3694 168.234 13.5201 168.769 14.8351C169.262 16.1502 169.549 17.5885 169.549 19.109C169.549 20.9172 169.262 22.4788 168.686 23.7939C168.07 25.15 167.33 26.2596 166.385 27.1226C165.44 28.0267 164.33 28.6842 163.139 29.1362C161.947 29.5883 160.714 29.7938 159.522 29.7938C158.002 29.7938 156.646 29.5061 155.495 28.8897C154.303 28.2732 153.399 27.4513 152.742 26.424H152.659V37.9306H147.769V19.2734ZM158.618 12.9859C156.81 12.9859 155.372 13.5612 154.303 14.6708C153.194 15.8214 152.659 17.3009 152.659 19.109C152.659 20.9172 153.194 22.3966 154.303 23.5062C155.372 24.6569 156.81 25.2322 158.618 25.2322C160.426 25.2322 161.865 24.6569 162.974 23.5062C164.084 22.3966 164.618 20.9172 164.618 19.109C164.618 17.3009 164.084 15.8214 162.974 14.6708C161.865 13.5612 160.426 12.9859 158.618 12.9859Z" fill="url(#paint5_linear_861_254)"/>
<path d="M175.878 6.53412C174.974 6.53412 174.193 6.20536 173.577 5.58893C172.96 4.9725 172.631 4.1917 172.631 3.2876C172.631 2.34242 172.96 1.56161 173.577 0.945187C174.193 0.328761 174.974 0 175.878 0C176.823 0 177.604 0.328761 178.22 0.945187C178.837 1.56161 179.124 2.34242 179.124 3.2876C179.124 4.1917 178.837 4.9725 178.22 5.58893C177.604 6.20536 176.823 6.53412 175.878 6.53412ZM173.453 29.2597V8.95873H178.344V29.2597H173.453Z" fill="url(#paint6_linear_861_254)"/>
<path d="M188.658 0.0820312H183.768V29.2595H188.658V0.0820312Z" fill="url(#paint7_linear_861_254)"/>
<path d="M214.425 19.109C214.425 20.6296 214.179 22.0679 213.644 23.3829C213.11 24.698 212.329 25.8075 211.384 26.7527C210.398 27.6979 209.247 28.4376 207.891 28.9719C206.535 29.5472 205.096 29.7938 203.494 29.7938C201.891 29.7938 200.412 29.5472 199.097 28.9719C197.74 28.4376 196.59 27.6979 195.645 26.7527C194.658 25.8075 193.919 24.698 193.384 23.3829C192.85 22.0679 192.562 20.6296 192.562 19.109C192.562 17.5885 192.85 16.1502 193.384 14.8351C193.919 13.5201 194.658 12.3694 195.645 11.4243C196.59 10.5202 197.74 9.78045 199.097 9.20512C200.412 8.67089 201.891 8.42432 203.494 8.42432C205.096 8.42432 206.535 8.67089 207.891 9.20512C209.247 9.78045 210.398 10.5202 211.384 11.4243C212.329 12.3694 213.11 13.5201 213.644 14.8351C214.179 16.1502 214.425 17.5885 214.425 19.109ZM203.494 25.2322C205.302 25.2322 206.74 24.6569 207.85 23.5062C208.918 22.3966 209.453 20.9172 209.453 19.109C209.453 17.3009 208.918 15.8214 207.85 14.6708C206.74 13.5612 205.302 12.9859 203.494 12.9859C201.686 12.9859 200.247 13.5612 199.138 14.6708C198.028 15.8214 197.494 17.3009 197.494 19.109C197.494 20.9172 198.028 22.3966 199.138 23.5062C200.247 24.6569 201.686 25.2322 203.494 25.2322Z" fill="url(#paint8_linear_861_254)"/>
<path d="M234.233 21.4518C234.233 22.849 234.027 24.0819 233.657 25.1093C233.246 26.1777 232.671 27.0407 231.931 27.7394C231.192 28.438 230.329 28.9311 229.301 29.301C228.274 29.6297 227.164 29.7941 225.932 29.7941C224.699 29.7941 223.589 29.6297 222.562 29.301C221.534 28.9311 220.671 28.438 219.932 27.7394C219.192 27.0407 218.617 26.1777 218.247 25.1093C217.836 24.0819 217.63 22.849 217.63 21.4518V2.17822H222.521V8.95891H233V13.3972H222.521V21.4518C222.521 22.8079 222.849 23.7942 223.466 24.3696C224.082 24.9449 224.904 25.2326 225.932 25.2326C226.959 25.2326 227.781 24.9449 228.397 24.3696C229.014 23.8353 229.342 22.849 229.342 21.4518V20.9176H234.233V21.4518Z" fill="url(#paint9_linear_861_254)"/>
<g clip-path="url(#clip1_861_254)">
<path d="M18.9654 37.9308C29.4397 37.9308 37.9308 29.4397 37.9308 18.9654C37.9308 8.49109 29.4397 0 18.9654 0C8.49109 0 0 8.49109 0 18.9654C0 29.4397 8.49109 37.9308 18.9654 37.9308Z" fill="url(#paint10_linear_861_254)"/>
<path fill-rule="evenodd" clip-rule="evenodd" d="M18.9028 0C29.3357 0 37.8059 8.47017 37.8059 18.9031L30.7053 18.903V14.1821C30.7053 12.4116 30.1152 11.8215 28.3449 11.8215C26.5744 11.8215 25.9843 12.4116 25.9843 14.1821V18.903H21.2633V14.1821C21.2633 12.4116 20.6732 11.8215 18.9028 11.8215V0Z" fill="url(#paint11_linear_861_254)"/>
<path fill-rule="evenodd" clip-rule="evenodd" d="M18.903 37.8065C8.47017 37.8065 0 29.3363 0 18.9034L7.10046 18.9033C7.10046 20.6737 7.69067 21.2639 9.461 21.2639C11.2314 21.2639 11.8215 21.854 11.8215 23.6244C11.8215 25.3947 12.4116 25.9849 14.1821 25.9849C15.9524 25.9848 16.5425 25.3947 16.5425 23.6244C16.5425 21.854 17.1326 21.2639 18.903 21.2639V37.8065Z" fill="url(#paint12_linear_861_254)"/>
<path fill-rule="evenodd" clip-rule="evenodd" d="M11.8218 18.9033H16.5427C16.5427 20.6737 15.9526 21.2639 14.1823 21.2639C12.4119 21.2639 11.8218 20.6737 11.8218 18.9033Z" fill="url(#paint13_linear_861_254)"/>
<path fill-rule="evenodd" clip-rule="evenodd" d="M0 18.903C0 8.47017 8.47017 0 18.9028 0V11.8214C17.133 11.8214 16.5424 12.4116 16.5424 14.182V18.903H11.8215V14.182C11.8215 12.4116 11.2319 11.8214 9.461 11.8214C7.69068 11.8214 7.10047 12.4116 7.10047 14.182V18.903H0Z" fill="url(#paint14_linear_861_254)"/>
<path fill-rule="evenodd" clip-rule="evenodd" d="M37.8067 18.9028C37.8067 29.3357 29.3362 37.8059 18.9033 37.8059V21.2634C20.6736 21.2634 21.2639 21.8535 21.2639 23.6239C21.2639 25.3942 21.854 25.9843 23.6244 25.9844C25.3948 25.9844 25.9849 25.3942 25.9849 23.6239C25.9849 21.8535 26.575 21.2634 28.3455 21.2634C30.1158 21.2634 30.7059 20.6732 30.7059 18.9028H37.8067Z" fill="url(#paint15_linear_861_254)"/>
<path fill-rule="evenodd" clip-rule="evenodd" d="M25.9847 18.9028H21.2637C21.2637 20.6733 21.8538 21.2634 23.6242 21.2634C25.3946 21.2634 25.9847 20.6733 25.9847 18.9028Z" fill="url(#paint16_linear_861_254)"/>
<g filter="url(#filter0_d_861_254)">
<path fill-rule="evenodd" clip-rule="evenodd" d="M18.9033 21.2634C20.6736 21.2634 21.2638 21.8535 21.2638 23.6239C21.2638 25.3942 21.8539 25.9843 23.6243 25.9844C25.3947 25.9844 25.9848 25.3942 25.9848 23.6239C25.9848 21.8535 26.5749 21.2634 28.3454 21.2634C30.1157 21.2634 30.7058 20.6733 30.7058 18.9028H25.9848C25.9848 20.6733 25.3947 21.2634 23.6243 21.2634C21.8539 21.2634 21.2638 20.6733 21.2638 18.9028H18.9033V21.2634Z" fill="url(#paint17_linear_861_254)"/>
</g>
<g filter="url(#filter1_i_861_254)">
<path fill-rule="evenodd" clip-rule="evenodd" d="M7.10059 18.9028C7.10059 20.6733 7.69069 21.2634 9.46112 21.2634C11.2314 21.2634 11.8217 21.8535 11.8217 23.6239C11.8217 25.3942 12.4118 25.9844 14.1821 25.9844C15.9525 25.9843 16.5426 25.3942 16.5426 23.6239C16.5426 21.8535 17.1327 21.2634 18.9032 21.2634V18.9028H16.5426C16.5426 20.6733 15.9525 21.2634 14.1821 21.2634C12.4118 21.2634 11.8217 20.6733 11.8217 18.9028H7.10059Z" fill="url(#paint18_linear_861_254)"/>
</g>
<g filter="url(#filter2_d_861_254)">
<path fill-rule="evenodd" clip-rule="evenodd" d="M18.903 11.8213C17.1326 11.8213 16.5425 12.4114 16.5425 14.1818V18.9028H18.903V11.8213Z" fill="url(#paint19_linear_861_254)"/>
</g>
<g filter="url(#filter3_i_861_254)">
<path fill-rule="evenodd" clip-rule="evenodd" d="M30.7053 18.9028V14.1818C30.7053 12.4114 30.1152 11.8213 28.3449 11.8213C26.5745 11.8213 25.9844 12.4114 25.9844 14.1818V18.9028H30.7053Z" fill="url(#paint20_linear_861_254)"/>
</g>
<g filter="url(#filter4_d_861_254)">
<path fill-rule="evenodd" clip-rule="evenodd" d="M11.8217 18.9028V14.1818C11.8217 12.4114 11.2314 11.8213 9.46112 11.8213C7.69069 11.8213 7.10059 12.4114 7.10059 14.1818V18.9028H11.8217Z" fill="url(#paint21_linear_861_254)"/>
</g>
<g filter="url(#filter5_i_861_254)">
<path fill-rule="evenodd" clip-rule="evenodd" d="M21.2638 18.9028V14.1818C21.2638 12.4114 20.6736 11.8213 18.9033 11.8213V18.9028H21.2638Z" fill="url(#paint22_linear_861_254)"/>
</g>
<g filter="url(#filter6_d_861_254)">
<path fill-rule="evenodd" clip-rule="evenodd" d="M18.9654 0C29.4327 0 37.9308 8.49807 37.9308 18.9654C37.9308 29.4327 29.4327 37.9308 18.9654 37.9308C8.49807 37.9308 0 29.4327 0 18.9654C0 8.49807 8.49807 0 18.9654 0ZM18.9654 2.06176C9.636 2.06176 2.06176 9.636 2.06176 18.9654C2.06176 28.2948 9.636 35.869 18.9654 35.869C28.2948 35.869 35.869 28.2948 35.869 18.9654C35.869 9.636 28.2948 2.06176 18.9654 2.06176Z" fill="url(#paint23_linear_861_254)"/>
</g>
</g>
</g>
<defs>
<filter id="filter0_d_861_254" x="16.9033" y="16.9028" width="15.8022" height="11.0815" filterUnits="userSpaceOnUse" color-interpolation-filters="sRGB">
<feFlood flood-opacity="0" result="BackgroundImageFix"/>
<feColorMatrix in="SourceAlpha" type="matrix" values="0 0 0 0 0 0 0 0 0 0 0 0 0 0 0 0 0 0 127 0" result="hardAlpha"/>
<feOffset/>
<feGaussianBlur stdDeviation="1"/>
<feComposite in2="hardAlpha" operator="out"/>
<feColorMatrix type="matrix" values="0 0 0 0 0 0 0 0 0 0 0 0 0 0 0 0 0 0 0.6 0"/>
<feBlend mode="normal" in2="BackgroundImageFix" result="effect1_dropShadow_861_254"/>
<feBlend mode="normal" in="SourceGraphic" in2="effect1_dropShadow_861_254" result="shape"/>
</filter>
<filter id="filter1_i_861_254" x="7.10059" y="18.9028" width="11.8027" height="7.08154" filterUnits="userSpaceOnUse" color-interpolation-filters="sRGB">
<feFlood flood-opacity="0" result="BackgroundImageFix"/>
<feBlend mode="normal" in="SourceGraphic" in2="BackgroundImageFix" result="shape"/>
<feColorMatrix in="SourceAlpha" type="matrix" values="0 0 0 0 0 0 0 0 0 0 0 0 0 0 0 0 0 0 127 0" result="hardAlpha"/>
<feOffset/>
<feGaussianBlur stdDeviation="1"/>
<feComposite in2="hardAlpha" operator="arithmetic" k2="-1" k3="1"/>
<feColorMatrix type="matrix" values="0 0 0 0 0 0 0 0 0 0 0 0 0 0 0 0 0 0 0.6 0"/>
<feBlend mode="normal" in2="shape" result="effect1_innerShadow_861_254"/>
</filter>
<filter id="filter2_d_861_254" x="14.5425" y="9.82129" width="6.36035" height="11.0815" filterUnits="userSpaceOnUse" color-interpolation-filters="sRGB">
<feFlood flood-opacity="0" result="BackgroundImageFix"/>
<feColorMatrix in="SourceAlpha" type="matrix" values="0 0 0 0 0 0 0 0 0 0 0 0 0 0 0 0 0 0 127 0" result="hardAlpha"/>
<feOffset/>
<feGaussianBlur stdDeviation="1"/>
<feComposite in2="hardAlpha" operator="out"/>
<feColorMatrix type="matrix" values="0 0 0 0 0 0 0 0 0 0 0 0 0 0 0 0 0 0 0.6 0"/>
<feBlend mode="normal" in2="BackgroundImageFix" result="effect1_dropShadow_861_254"/>
<feBlend mode="normal" in="SourceGraphic" in2="effect1_dropShadow_861_254" result="shape"/>
</filter>
<filter id="filter3_i_861_254" x="25.9844" y="11.8213" width="4.72119" height="7.08154" filterUnits="userSpaceOnUse" color-interpolation-filters="sRGB">
<feFlood flood-opacity="0" result="BackgroundImageFix"/>
<feBlend mode="normal" in="SourceGraphic" in2="BackgroundImageFix" result="shape"/>
<feColorMatrix in="SourceAlpha" type="matrix" values="0 0 0 0 0 0 0 0 0 0 0 0 0 0 0 0 0 0 127 0" result="hardAlpha"/>
<feOffset/>
<feGaussianBlur stdDeviation="1"/>
<feComposite in2="hardAlpha" operator="arithmetic" k2="-1" k3="1"/>
<feColorMatrix type="matrix" values="0 0 0 0 0 0 0 0 0 0 0 0 0 0 0 0 0 0 0.6 0"/>
<feBlend mode="normal" in2="shape" result="effect1_innerShadow_861_254"/>
</filter>
<filter id="filter4_d_861_254" x="5.10059" y="9.82129" width="8.72119" height="11.0815" filterUnits="userSpaceOnUse" color-interpolation-filters="sRGB">
<feFlood flood-opacity="0" result="BackgroundImageFix"/>
<feColorMatrix in="SourceAlpha" type="matrix" values="0 0 0 0 0 0 0 0 0 0 0 0 0 0 0 0 0 0 127 0" result="hardAlpha"/>
<feOffset/>
<feGaussianBlur stdDeviation="1"/>
<feComposite in2="hardAlpha" operator="out"/>
<feColorMatrix type="matrix" values="0 0 0 0 0 0 0 0 0 0 0 0 0 0 0 0 0 0 0.6 0"/>
<feBlend mode="normal" in2="BackgroundImageFix" result="effect1_dropShadow_861_254"/>
<feBlend mode="normal" in="SourceGraphic" in2="effect1_dropShadow_861_254" result="shape"/>
</filter>
<filter id="filter5_i_861_254" x="18.9033" y="11.8213" width="2.36035" height="7.08154" filterUnits="userSpaceOnUse" color-interpolation-filters="sRGB">
<feFlood flood-opacity="0" result="BackgroundImageFix"/>
<feBlend mode="normal" in="SourceGraphic" in2="BackgroundImageFix" result="shape"/>
<feColorMatrix in="SourceAlpha" type="matrix" values="0 0 0 0 0 0 0 0 0 0 0 0 0 0 0 0 0 0 127 0" result="hardAlpha"/>
<feOffset/>
<feGaussianBlur stdDeviation="1"/>
<feComposite in2="hardAlpha" operator="arithmetic" k2="-1" k3="1"/>
<feColorMatrix type="matrix" values="0 0 0 0 0 0 0 0 0 0 0 0 0 0 0 0 0 0 0.6 0"/>
<feBlend mode="normal" in2="shape" result="effect1_innerShadow_861_254"/>
</filter>
<filter id="filter6_d_861_254" x="-2" y="-2" width="41.9307" height="41.9307" filterUnits="userSpaceOnUse" color-interpolation-filters="sRGB">
<feFlood flood-opacity="0" result="BackgroundImageFix"/>
<feColorMatrix in="SourceAlpha" type="matrix" values="0 0 0 0 0 0 0 0 0 0 0 0 0 0 0 0 0 0 127 0" result="hardAlpha"/>
<feOffset/>
<feGaussianBlur stdDeviation="1"/>
<feComposite in2="hardAlpha" operator="out"/>
<feColorMatrix type="matrix" values="0 0 0 0 0 0 0 0 0 0 0 0 0 0 0 0 0 0 0.6 0"/>
<feBlend mode="normal" in2="BackgroundImageFix" result="effect1_dropShadow_861_254"/>
<feBlend mode="normal" in="SourceGraphic" in2="effect1_dropShadow_861_254" result="shape"/>
</filter>
<linearGradient id="paint0_linear_861_254" x1="64.1814" y1="8.42432" x2="64.1814" y2="29.7938" gradientUnits="userSpaceOnUse">
<stop/>
<stop offset="1" stop-color="#323232"/>
</linearGradient>
<linearGradient id="paint1_linear_861_254" x1="88.7972" y1="0.0820312" x2="88.7972" y2="29.2595" gradientUnits="userSpaceOnUse">
<stop/>
<stop offset="1" stop-color="#323232"/>
</linearGradient>
<linearGradient id="paint2_linear_861_254" x1="112.879" y1="8.42432" x2="112.879" y2="29.2595" gradientUnits="userSpaceOnUse">
<stop/>
<stop offset="1" stop-color="#323232"/>
</linearGradient>
<linearGradient id="paint3_linear_861_254" x1="130.077" y1="0.0820312" x2="130.077" y2="29.2595" gradientUnits="userSpaceOnUse">
<stop/>
<stop offset="1" stop-color="#323232"/>
</linearGradient>
<linearGradient id="paint4_linear_861_254" x1="140.495" y1="23.3008" x2="140.495" y2="29.7938" gradientUnits="userSpaceOnUse">
<stop/>
<stop offset="1" stop-color="#323232"/>
</linearGradient>
<linearGradient id="paint5_linear_861_254" x1="158.659" y1="8.42432" x2="158.659" y2="37.9306" gradientUnits="userSpaceOnUse">
<stop/>
<stop offset="1" stop-color="#323232"/>
</linearGradient>
<linearGradient id="paint6_linear_861_254" x1="175.878" y1="0" x2="175.878" y2="29.2597" gradientUnits="userSpaceOnUse">
<stop/>
<stop offset="1" stop-color="#323232"/>
</linearGradient>
<linearGradient id="paint7_linear_861_254" x1="186.213" y1="0.0820312" x2="186.213" y2="29.2595" gradientUnits="userSpaceOnUse">
<stop/>
<stop offset="1" stop-color="#323232"/>
</linearGradient>
<linearGradient id="paint8_linear_861_254" x1="203.494" y1="8.42432" x2="203.494" y2="29.7938" gradientUnits="userSpaceOnUse">
<stop/>
<stop offset="1" stop-color="#323232"/>
</linearGradient>
<linearGradient id="paint9_linear_861_254" x1="225.932" y1="2.17822" x2="225.932" y2="29.7941" gradientUnits="userSpaceOnUse">
<stop/>
<stop offset="1" stop-color="#323232"/>
</linearGradient>
<linearGradient id="paint10_linear_861_254" x1="18.9654" y1="0" x2="18.9654" y2="37.9308" gradientUnits="userSpaceOnUse">
<stop stop-color="#FFBD02"/>
<stop offset="1" stop-color="#C39000"/>
</linearGradient>
<linearGradient id="paint11_linear_861_254" x1="28.3544" y1="0" x2="28.3544" y2="18.9031" gradientUnits="userSpaceOnUse">
<stop/>
<stop offset="1" stop-color="#323232"/>
</linearGradient>
<linearGradient id="paint12_linear_861_254" x1="9.45152" y1="18.9033" x2="9.45152" y2="37.8065" gradientUnits="userSpaceOnUse">
<stop/>
<stop offset="1" stop-color="#323232"/>
</linearGradient>
<linearGradient id="paint13_linear_861_254" x1="14.1823" y1="18.9033" x2="14.1823" y2="21.2639" gradientUnits="userSpaceOnUse">
<stop/>
<stop offset="1" stop-color="#323232"/>
</linearGradient>
<linearGradient id="paint14_linear_861_254" x1="9.45142" y1="0" x2="9.45142" y2="18.903" gradientUnits="userSpaceOnUse">
<stop stop-color="#FFBD00"/>
<stop offset="1" stop-color="#CF9A00"/>
</linearGradient>
<linearGradient id="paint15_linear_861_254" x1="28.355" y1="18.9028" x2="28.355" y2="37.8059" gradientUnits="userSpaceOnUse">
<stop stop-color="#FFBD00"/>
<stop offset="1" stop-color="#CF9A00"/>
</linearGradient>
<linearGradient id="paint16_linear_861_254" x1="23.6242" y1="18.9028" x2="23.6242" y2="21.2634" gradientUnits="userSpaceOnUse">
<stop stop-color="#FFBD00"/>
<stop offset="1" stop-color="#CF9A00"/>
</linearGradient>
<linearGradient id="paint17_linear_861_254" x1="24.8046" y1="18.9028" x2="24.8046" y2="25.9844" gradientUnits="userSpaceOnUse">
<stop/>
<stop offset="1" stop-color="#323232"/>
</linearGradient>
<linearGradient id="paint18_linear_861_254" x1="13.0019" y1="18.9028" x2="13.0019" y2="25.9844" gradientUnits="userSpaceOnUse">
<stop stop-color="#FFBD00"/>
<stop offset="1" stop-color="#CF9A00"/>
</linearGradient>
<linearGradient id="paint19_linear_861_254" x1="17.7227" y1="11.8213" x2="17.7227" y2="18.9028" gradientUnits="userSpaceOnUse">
<stop/>
<stop offset="1" stop-color="#323232"/>
</linearGradient>
<linearGradient id="paint20_linear_861_254" x1="28.3449" y1="11.8213" x2="28.3449" y2="18.9028" gradientUnits="userSpaceOnUse">
<stop stop-color="#FFBD00"/>
<stop offset="1" stop-color="#CF9A00"/>
</linearGradient>
<linearGradient id="paint21_linear_861_254" x1="9.46112" y1="11.8213" x2="9.46112" y2="18.9028" gradientUnits="userSpaceOnUse">
<stop/>
<stop offset="1" stop-color="#323232"/>
</linearGradient>
<linearGradient id="paint22_linear_861_254" x1="20.0835" y1="11.8213" x2="20.0835" y2="18.9028" gradientUnits="userSpaceOnUse">
<stop stop-color="#FFBD00"/>
<stop offset="1" stop-color="#CF9A00"/>
</linearGradient>
<linearGradient id="paint23_linear_861_254" x1="18.9654" y1="0" x2="18.9654" y2="37.9308" gradientUnits="userSpaceOnUse">
<stop stop-color="#FFBD02"/>
<stop offset="1" stop-color="#C39000"/>
</linearGradient>
<clipPath id="clip0_861_254">
<rect width="235" height="38" fill="white"/>
</clipPath>
<clipPath id="clip1_861_254">
<rect width="37.9308" height="37.9308" rx="18.9654" fill="white"/>
</clipPath>
</defs>
</svg>
