<svg width="109" height="105" viewBox="0 0 109 105" fill="none" xmlns="http://www.w3.org/2000/svg">
<path d="M45.3174 6.53555C46.0003 7.1499 46.6534 7.79249 47.3028 8.44192C47.3811 8.51353 47.4596 8.58528 47.5404 8.65907C49.2488 10.2422 50.4308 12.381 51.5237 14.4093C51.5763 14.5062 51.6289 14.6032 51.6832 14.7032C54.0087 19.0661 55.1416 24.3474 55.4534 29.255C55.4611 29.3547 55.469 29.4544 55.477 29.5572C56.1958 38.7669 55.1326 48.242 52.3969 57.0543C52.3179 57.3104 52.3179 57.3104 52.2374 57.5718C49.6713 65.8408 45.6416 73.4606 40.436 80.3719C40.0866 80.8362 39.7599 81.3099 39.4433 81.7972C39.5497 81.8382 39.656 81.8793 39.7656 81.9216C40.1347 82.0733 40.4819 82.2408 40.835 82.426C44.9795 84.5697 49.2245 85.8416 53.8524 86.4547C54.0362 86.4802 54.2202 86.5056 54.4095 86.5318C55.0031 86.6052 55.5942 86.6283 56.1919 86.6349C56.3564 86.6371 56.3564 86.6371 56.5242 86.6392C62.3747 86.6996 67.9237 85.698 73.21 83.1071C72.8174 82.3902 72.3864 81.7454 71.891 81.0967C70.4508 79.1689 69.2671 77.0659 68.1159 74.9565C68.0551 74.8465 67.9944 74.7366 67.9318 74.6234C61.1556 62.3087 58.4324 46.7162 61.949 31.217C62.5501 29.2079 63.3379 27.3158 64.3317 25.4708C64.4017 25.3382 64.4017 25.3382 64.4732 25.2032C67.0744 20.307 71.5265 16.6542 76.7979 14.9467C78.5477 14.431 80.4053 14.0059 82.2339 13.9727C82.3978 13.9687 82.5618 13.9648 82.7308 13.9607C83.2933 13.9542 83.8547 13.9612 84.4171 13.9727C84.5661 13.9743 84.5661 13.9743 84.7182 13.9759C87.3822 14.0121 90.0113 14.5716 92.4221 15.7192C92.5194 15.7649 92.6166 15.8106 92.7167 15.8578C94.8884 16.8968 97.1805 18.3395 98.7442 20.2038C99.0011 20.5073 99.2571 20.8072 99.5295 21.097C101.093 22.7692 102.28 24.7614 103.338 26.7807C103.386 26.8707 103.434 26.9606 103.484 27.0532C105.816 31.4643 106.82 36.5751 107.413 41.4809C107.431 41.6212 107.448 41.7615 107.466 41.9062C108.011 46.6081 107.966 51.6281 107.413 56.3266C107.402 56.4212 107.391 56.516 107.38 56.6135C106.318 65.7221 103.89 74.8381 98.9855 82.6738C98.8026 82.9492 98.8026 82.9492 98.8262 83.2527C101.594 84.8064 104.414 86.2688 107.358 87.461C107.704 87.6191 107.704 87.6191 107.996 87.9101C107.944 88.566 107.738 89.1075 107.476 89.7066C107.437 89.7971 107.398 89.8877 107.357 89.981C107.225 90.2856 107.092 90.5897 106.959 90.8938C106.761 91.3482 106.564 91.8031 106.367 92.2578C106.314 92.3815 106.26 92.5053 106.204 92.6328C105.732 93.7233 105.266 94.8169 104.803 95.9111C104.728 96.0862 104.654 96.2613 104.578 96.4416C104.278 97.1471 103.979 97.8525 103.681 98.5583C103.469 99.0572 103.258 99.556 103.046 100.055C102.983 100.203 102.921 100.351 102.856 100.504C102.681 100.917 102.502 101.327 102.319 101.737C102.258 101.876 102.196 102.016 102.133 102.16C102.071 102.292 102.01 102.424 101.946 102.561C101.892 102.679 101.838 102.797 101.782 102.919C101.592 103.192 101.592 103.192 101.296 103.309C100.944 103.345 100.756 103.278 100.432 103.137C100.261 103.064 100.261 103.064 100.086 102.989C99.8991 102.905 99.8991 102.905 99.7085 102.819C99.576 102.761 99.4436 102.703 99.3071 102.643C95.4683 100.934 91.7734 99.0239 88.2342 96.7527C88.1339 96.6883 88.0336 96.624 87.9302 96.5576C87.7073 96.4102 87.4877 96.2577 87.2704 96.1021C87.1554 96.0207 87.0404 95.9393 86.9221 95.8555C86.8185 95.78 86.715 95.7046 86.6084 95.6269C86.3219 95.4526 86.3219 95.4526 86.0241 95.5024C85.6663 95.6488 85.3495 95.8274 85.0185 96.0277C84.8098 96.1526 84.8098 96.1526 84.5969 96.2799C84.4475 96.3697 84.298 96.4594 84.1442 96.552C77.4425 100.504 70.2863 102.612 62.5852 103.484C62.3965 103.506 62.3965 103.506 62.2041 103.529C50.7115 104.757 37.9289 101.411 28.4517 94.8854C28.3514 94.8165 28.251 94.7475 28.1476 94.6764C27.9645 94.5485 27.7829 94.4185 27.6033 94.2859C27.1358 93.9505 27.1358 93.9505 26.5789 93.9085C26.1574 94.0355 25.8621 94.2073 25.4975 94.4535C25.3639 94.5425 25.2302 94.6315 25.0925 94.7233C24.9501 94.8194 24.8079 94.9156 24.6612 95.0145C20.7844 97.5844 16.7365 99.7807 12.5173 101.737C12.3579 101.811 12.1985 101.885 12.0344 101.961C11.5779 102.171 11.1202 102.378 10.6616 102.583C10.4577 102.676 10.4577 102.676 10.2495 102.771C10.122 102.827 9.99467 102.883 9.86324 102.941C9.75336 102.989 9.64347 103.039 9.53023 103.089C9.06303 103.223 8.63425 103.209 8.15089 103.192C7.36247 101.672 6.67476 100.123 6.01311 98.544C5.79785 98.0323 5.58229 97.5207 5.36674 97.009C5.31056 96.8758 5.25452 96.7425 5.19674 96.6052C4.82007 95.712 4.43743 94.8215 4.05086 93.9324C3.77883 93.3064 3.50811 92.6798 3.2374 92.0531C3.1051 91.748 2.97221 91.4431 2.8386 91.1385C2.65143 90.7115 2.46673 90.2834 2.28233 89.8551C2.22585 89.7277 2.16924 89.6002 2.11087 89.4689C1.90405 88.9834 1.74933 88.6009 1.73682 88.0701C1.96314 87.6255 2.22702 87.5349 2.68039 87.3358C2.84661 87.2611 3.01282 87.1863 3.18399 87.1092C3.27291 87.0708 3.36184 87.0324 3.45354 86.9926C3.73313 86.8717 4.01112 86.7475 4.28882 86.6224C4.66724 86.4521 5.04625 86.2829 5.42554 86.1145C7.33365 85.2654 9.208 84.3489 11.0436 83.3527C11.1724 83.2829 11.3012 83.2131 11.4341 83.1412C12.1722 82.7345 12.874 82.2976 13.564 81.8135C13.8272 81.6517 13.8272 81.6517 14.1183 81.6517C13.6661 80.6812 13.1714 79.7737 12.5901 78.8771C8.12309 71.8766 5.75549 63.685 4.22114 55.5989C4.19029 55.4385 4.15958 55.2781 4.12785 55.1129C1.59345 41.7007 2.07856 25.8993 10.0781 11.7321C13.2475 7.17407 17.5108 3.68765 22.8511 2.03789C23.0304 1.98098 23.2097 1.92407 23.3945 1.86556C30.6071 -0.24719 39.6515 1.56224 45.3174 6.53555ZM26.0531 19.0668C25.9055 19.1691 25.9055 19.1691 25.7551 19.2738C21.9046 22.2617 20.7421 28.769 20.1605 33.2717C18.7028 45.0832 20.3293 59.3059 26.7808 69.5713C27.222 69.6199 27.222 69.6199 27.4796 69.3355C28.1759 68.5314 28.7991 67.7044 29.3824 66.815C29.4702 66.6819 29.5581 66.5488 29.6486 66.4117C30.3889 65.2768 31.0631 64.1163 31.6968 62.9191C31.8806 62.5743 32.0692 62.2326 32.2586 61.8908C35.1801 56.5543 37.0078 50.6443 38.0242 44.6647C38.0424 44.5588 38.0606 44.453 38.0794 44.3438C38.5779 41.4176 38.7648 38.5131 38.7534 35.5458C38.752 35.058 38.7534 34.5702 38.7553 34.0825C38.7571 31.6094 38.6788 29.139 38.0879 26.7262C38.0563 26.5928 38.0247 26.4595 37.9921 26.3223C37.3102 23.5323 36.217 20.6238 33.767 18.9212C31.3112 17.6792 28.3504 17.3945 26.0531 19.0668ZM79.9688 32.3751C76.4889 36.6397 76.9608 43.8607 77.4667 48.9941C78.2831 56.2963 80.5908 63.5215 84.6354 69.6895C84.7226 69.8236 84.8099 69.9576 84.8999 70.0956C84.9823 70.2177 85.0645 70.3398 85.1493 70.4656C85.2223 70.5741 85.295 70.6827 85.3701 70.7946C85.4748 70.9095 85.4748 70.9095 85.5815 71.0268H86.0181C87.6309 68.1374 88.6293 64.924 89.3657 61.7118C89.3977 61.576 89.4297 61.4402 89.4626 61.3004C89.8815 59.5072 90.1845 57.706 90.4209 55.8808C90.4446 55.6976 90.4683 55.5142 90.4928 55.3254C90.7698 53.0788 90.8514 50.855 90.8483 48.5945C90.8482 48.3962 90.8482 48.3962 90.8479 48.1939C90.8437 46.2829 90.828 44.3915 90.53 42.4997C90.5081 42.3565 90.4861 42.2134 90.4635 42.066C89.8956 38.4902 89.0037 33.6747 85.8747 31.3711C83.9639 30.2197 81.4498 30.8348 79.9688 32.3751Z" fill="url(#paint0_linear_861_304)"/>
<defs>
<linearGradient id="paint0_linear_861_304" x1="54.8662" y1="0.996582" x2="54.8662" y2="103.78" gradientUnits="userSpaceOnUse">
<stop/>
<stop offset="1" stop-color="#323232"/>
</linearGradient>
</defs>
</svg>
