<svg width="78" height="24" viewBox="0 0 416 128" fill="none" xmlns="http://www.w3.org/2000/svg">
                        <path d="M176 37.6603H192.932L193.61 44.6126C195.416 41.8862 198.035 39.7505 201.466 38.2056C204.898 36.6606 208.736 35.8881 212.98 35.8881C220.476 35.8881 226.571 38.2056 231.267 42.8405C236.053 47.3845 238.447 54.246 238.447 63.4249V112H217.721V68.0598C217.721 64.2429 216.818 61.2438 215.012 59.0627C213.296 56.8815 210.723 55.7909 207.291 55.7909C203.859 55.7909 201.241 56.8815 199.434 59.0627C197.719 61.1529 196.861 64.1065 196.861 67.9235V112H176V37.6603Z" fill="#FF16C5"></path>
                        <path d="M249.153 37.6603H270.014V112H249.153V37.6603Z" fill="#FF16C5"></path>
                        <path d="M276.167 37.6603H297.975L310.844 82.7825L323.442 37.6603H345.251L320.868 112H300.956L276.167 37.6603Z" fill="#FF16C5"></path>
                        <path d="M386.868 114C378.018 114 370.387 112.364 363.976 109.092C357.654 105.73 352.823 101.14 349.482 95.324C346.14 89.5077 344.47 82.9188 344.47 75.5575C344.47 67.7417 346.005 60.8348 349.075 54.8367C352.146 48.8386 356.48 44.2037 362.079 40.932C367.769 37.5694 374.361 35.8881 381.856 35.8881C389.442 35.8881 395.809 37.4331 400.956 40.523C406.194 43.613 410.032 47.748 412.47 52.9282C414.999 58.0175 416 63.6976 416 69.9683C416 72.8765 415.774 76.3754 415.323 80.465H365.872C366.775 85.4635 369.123 89.4168 372.916 92.325C376.709 95.1423 381.856 96.5509 388.358 96.5509C395.763 96.5509 403.078 94.6424 410.303 90.8254V108.411C407.413 110.138 403.71 111.501 399.195 112.5C394.77 113.5 390.661 114 386.868 114ZM395.538 64.7881C395.538 61.062 394.228 58.1084 391.609 55.9273C388.99 53.6553 385.875 52.5192 382.263 52.5192C378.289 52.5192 374.993 53.5644 372.374 55.6546C369.755 57.654 367.859 60.7439 366.685 64.9245L395.538 64.7881Z" fill="#FF16C5"></path>
                        <path d="M249.153 16H270.014V28.0283H249.153V16Z" fill="#FF16C5"></path>
                        <path d="M57.3666 38.2444L0 0V101.365C0 104.76 1.34856 108.015 3.74903 110.416L17.5843 124.251C19.9848 126.651 23.2405 128 26.6353 128H64V93.3057C64 89.8979 67.798 87.8653 70.6334 89.7556L128 128V26.6353C128 23.2405 126.651 19.9848 124.251 17.5843L110.416 3.74903C108.015 1.34857 104.76 0 101.365 0H64V34.6943C64 38.1021 60.202 40.1347 57.3666 38.2444Z" fill="#FF16C5"></path>
                    </svg>