<svg width="38" height="38" viewBox="0 0 38 38" fill="none" xmlns="http://www.w3.org/2000/svg">
<g clip-path="url(#clip0_861_403)">
<path d="M18.9654 37.9308C29.4397 37.9308 37.9308 29.4397 37.9308 18.9654C37.9308 8.49109 29.4397 0 18.9654 0C8.49109 0 0 8.49109 0 18.9654C0 29.4397 8.49109 37.9308 18.9654 37.9308Z" fill="url(#paint0_linear_861_403)"/>
<path fill-rule="evenodd" clip-rule="evenodd" d="M18.9028 0C29.3357 0 37.8059 8.47017 37.8059 18.9031L30.7053 18.903V14.1821C30.7053 12.4116 30.1152 11.8215 28.3449 11.8215C26.5744 11.8215 25.9843 12.4116 25.9843 14.1821V18.903H21.2633V14.1821C21.2633 12.4116 20.6732 11.8215 18.9028 11.8215V0Z" fill="url(#paint1_linear_861_403)"/>
<path fill-rule="evenodd" clip-rule="evenodd" d="M18.903 37.8065C8.47017 37.8065 0 29.3363 0 18.9034L7.10046 18.9033C7.10046 20.6737 7.69067 21.2639 9.461 21.2639C11.2314 21.2639 11.8215 21.854 11.8215 23.6244C11.8215 25.3947 12.4116 25.9849 14.1821 25.9849C15.9524 25.9848 16.5425 25.3947 16.5425 23.6244C16.5425 21.854 17.1326 21.2639 18.903 21.2639V37.8065Z" fill="url(#paint2_linear_861_403)"/>
<path fill-rule="evenodd" clip-rule="evenodd" d="M11.8218 18.9033H16.5427C16.5427 20.6737 15.9526 21.2639 14.1823 21.2639C12.4119 21.2639 11.8218 20.6737 11.8218 18.9033Z" fill="url(#paint3_linear_861_403)"/>
<path fill-rule="evenodd" clip-rule="evenodd" d="M0 18.903C0 8.47017 8.47017 0 18.9028 0V11.8214C17.133 11.8214 16.5424 12.4116 16.5424 14.182V18.903H11.8215V14.182C11.8215 12.4116 11.2319 11.8214 9.461 11.8214C7.69068 11.8214 7.10047 12.4116 7.10047 14.182V18.903H0Z" fill="url(#paint4_linear_861_403)"/>
<path fill-rule="evenodd" clip-rule="evenodd" d="M37.8067 18.9028C37.8067 29.3357 29.3362 37.8059 18.9033 37.8059V21.2634C20.6736 21.2634 21.2639 21.8535 21.2639 23.6239C21.2639 25.3942 21.854 25.9843 23.6244 25.9844C25.3948 25.9844 25.9849 25.3942 25.9849 23.6239C25.9849 21.8535 26.575 21.2634 28.3455 21.2634C30.1158 21.2634 30.7059 20.6732 30.7059 18.9028H37.8067Z" fill="url(#paint5_linear_861_403)"/>
<path fill-rule="evenodd" clip-rule="evenodd" d="M25.9847 18.9028H21.2637C21.2637 20.6733 21.8538 21.2634 23.6242 21.2634C25.3946 21.2634 25.9847 20.6733 25.9847 18.9028Z" fill="url(#paint6_linear_861_403)"/>
<g filter="url(#filter0_d_861_403)">
<path fill-rule="evenodd" clip-rule="evenodd" d="M18.9033 21.2634C20.6736 21.2634 21.2638 21.8535 21.2638 23.6239C21.2638 25.3942 21.8539 25.9843 23.6243 25.9844C25.3947 25.9844 25.9848 25.3942 25.9848 23.6239C25.9848 21.8535 26.5749 21.2634 28.3454 21.2634C30.1157 21.2634 30.7058 20.6733 30.7058 18.9028H25.9848C25.9848 20.6733 25.3947 21.2634 23.6243 21.2634C21.8539 21.2634 21.2638 20.6733 21.2638 18.9028H18.9033V21.2634Z" fill="url(#paint7_linear_861_403)"/>
</g>
<g filter="url(#filter1_i_861_403)">
<path fill-rule="evenodd" clip-rule="evenodd" d="M7.10059 18.9028C7.10059 20.6733 7.69069 21.2634 9.46112 21.2634C11.2314 21.2634 11.8217 21.8535 11.8217 23.6239C11.8217 25.3942 12.4118 25.9844 14.1821 25.9844C15.9525 25.9843 16.5426 25.3942 16.5426 23.6239C16.5426 21.8535 17.1327 21.2634 18.9032 21.2634V18.9028H16.5426C16.5426 20.6733 15.9525 21.2634 14.1821 21.2634C12.4118 21.2634 11.8217 20.6733 11.8217 18.9028H7.10059Z" fill="url(#paint8_linear_861_403)"/>
</g>
<g filter="url(#filter2_d_861_403)">
<path fill-rule="evenodd" clip-rule="evenodd" d="M18.903 11.8213C17.1326 11.8213 16.5425 12.4114 16.5425 14.1818V18.9028H18.903V11.8213Z" fill="url(#paint9_linear_861_403)"/>
</g>
<g filter="url(#filter3_i_861_403)">
<path fill-rule="evenodd" clip-rule="evenodd" d="M30.7053 18.9028V14.1818C30.7053 12.4114 30.1152 11.8213 28.3449 11.8213C26.5745 11.8213 25.9844 12.4114 25.9844 14.1818V18.9028H30.7053Z" fill="url(#paint10_linear_861_403)"/>
</g>
<g filter="url(#filter4_d_861_403)">
<path fill-rule="evenodd" clip-rule="evenodd" d="M11.8217 18.9028V14.1818C11.8217 12.4114 11.2314 11.8213 9.46112 11.8213C7.69069 11.8213 7.10059 12.4114 7.10059 14.1818V18.9028H11.8217Z" fill="url(#paint11_linear_861_403)"/>
</g>
<g filter="url(#filter5_i_861_403)">
<path fill-rule="evenodd" clip-rule="evenodd" d="M21.2638 18.9028V14.1818C21.2638 12.4114 20.6736 11.8213 18.9033 11.8213V18.9028H21.2638Z" fill="url(#paint12_linear_861_403)"/>
</g>
<g filter="url(#filter6_d_861_403)">
<path fill-rule="evenodd" clip-rule="evenodd" d="M18.9654 0C29.4327 0 37.9308 8.49807 37.9308 18.9654C37.9308 29.4327 29.4327 37.9308 18.9654 37.9308C8.49807 37.9308 0 29.4327 0 18.9654C0 8.49807 8.49807 0 18.9654 0ZM18.9654 2.06176C9.636 2.06176 2.06176 9.636 2.06176 18.9654C2.06176 28.2948 9.636 35.869 18.9654 35.869C28.2948 35.869 35.869 28.2948 35.869 18.9654C35.869 9.636 28.2948 2.06176 18.9654 2.06176Z" fill="url(#paint13_linear_861_403)"/>
</g>
</g>
<defs>
<filter id="filter0_d_861_403" x="16.9033" y="16.9028" width="15.8022" height="11.0815" filterUnits="userSpaceOnUse" color-interpolation-filters="sRGB">
<feFlood flood-opacity="0" result="BackgroundImageFix"/>
<feColorMatrix in="SourceAlpha" type="matrix" values="0 0 0 0 0 0 0 0 0 0 0 0 0 0 0 0 0 0 127 0" result="hardAlpha"/>
<feOffset/>
<feGaussianBlur stdDeviation="1"/>
<feComposite in2="hardAlpha" operator="out"/>
<feColorMatrix type="matrix" values="0 0 0 0 0 0 0 0 0 0 0 0 0 0 0 0 0 0 0.6 0"/>
<feBlend mode="normal" in2="BackgroundImageFix" result="effect1_dropShadow_861_403"/>
<feBlend mode="normal" in="SourceGraphic" in2="effect1_dropShadow_861_403" result="shape"/>
</filter>
<filter id="filter1_i_861_403" x="7.10059" y="18.9028" width="11.8027" height="7.08154" filterUnits="userSpaceOnUse" color-interpolation-filters="sRGB">
<feFlood flood-opacity="0" result="BackgroundImageFix"/>
<feBlend mode="normal" in="SourceGraphic" in2="BackgroundImageFix" result="shape"/>
<feColorMatrix in="SourceAlpha" type="matrix" values="0 0 0 0 0 0 0 0 0 0 0 0 0 0 0 0 0 0 127 0" result="hardAlpha"/>
<feOffset/>
<feGaussianBlur stdDeviation="1"/>
<feComposite in2="hardAlpha" operator="arithmetic" k2="-1" k3="1"/>
<feColorMatrix type="matrix" values="0 0 0 0 0 0 0 0 0 0 0 0 0 0 0 0 0 0 0.6 0"/>
<feBlend mode="normal" in2="shape" result="effect1_innerShadow_861_403"/>
</filter>
<filter id="filter2_d_861_403" x="14.5425" y="9.82129" width="6.36035" height="11.0815" filterUnits="userSpaceOnUse" color-interpolation-filters="sRGB">
<feFlood flood-opacity="0" result="BackgroundImageFix"/>
<feColorMatrix in="SourceAlpha" type="matrix" values="0 0 0 0 0 0 0 0 0 0 0 0 0 0 0 0 0 0 127 0" result="hardAlpha"/>
<feOffset/>
<feGaussianBlur stdDeviation="1"/>
<feComposite in2="hardAlpha" operator="out"/>
<feColorMatrix type="matrix" values="0 0 0 0 0 0 0 0 0 0 0 0 0 0 0 0 0 0 0.6 0"/>
<feBlend mode="normal" in2="BackgroundImageFix" result="effect1_dropShadow_861_403"/>
<feBlend mode="normal" in="SourceGraphic" in2="effect1_dropShadow_861_403" result="shape"/>
</filter>
<filter id="filter3_i_861_403" x="25.9844" y="11.8213" width="4.72119" height="7.08154" filterUnits="userSpaceOnUse" color-interpolation-filters="sRGB">
<feFlood flood-opacity="0" result="BackgroundImageFix"/>
<feBlend mode="normal" in="SourceGraphic" in2="BackgroundImageFix" result="shape"/>
<feColorMatrix in="SourceAlpha" type="matrix" values="0 0 0 0 0 0 0 0 0 0 0 0 0 0 0 0 0 0 127 0" result="hardAlpha"/>
<feOffset/>
<feGaussianBlur stdDeviation="1"/>
<feComposite in2="hardAlpha" operator="arithmetic" k2="-1" k3="1"/>
<feColorMatrix type="matrix" values="0 0 0 0 0 0 0 0 0 0 0 0 0 0 0 0 0 0 0.6 0"/>
<feBlend mode="normal" in2="shape" result="effect1_innerShadow_861_403"/>
</filter>
<filter id="filter4_d_861_403" x="5.10059" y="9.82129" width="8.72119" height="11.0815" filterUnits="userSpaceOnUse" color-interpolation-filters="sRGB">
<feFlood flood-opacity="0" result="BackgroundImageFix"/>
<feColorMatrix in="SourceAlpha" type="matrix" values="0 0 0 0 0 0 0 0 0 0 0 0 0 0 0 0 0 0 127 0" result="hardAlpha"/>
<feOffset/>
<feGaussianBlur stdDeviation="1"/>
<feComposite in2="hardAlpha" operator="out"/>
<feColorMatrix type="matrix" values="0 0 0 0 0 0 0 0 0 0 0 0 0 0 0 0 0 0 0.6 0"/>
<feBlend mode="normal" in2="BackgroundImageFix" result="effect1_dropShadow_861_403"/>
<feBlend mode="normal" in="SourceGraphic" in2="effect1_dropShadow_861_403" result="shape"/>
</filter>
<filter id="filter5_i_861_403" x="18.9033" y="11.8213" width="2.36035" height="7.08154" filterUnits="userSpaceOnUse" color-interpolation-filters="sRGB">
<feFlood flood-opacity="0" result="BackgroundImageFix"/>
<feBlend mode="normal" in="SourceGraphic" in2="BackgroundImageFix" result="shape"/>
<feColorMatrix in="SourceAlpha" type="matrix" values="0 0 0 0 0 0 0 0 0 0 0 0 0 0 0 0 0 0 127 0" result="hardAlpha"/>
<feOffset/>
<feGaussianBlur stdDeviation="1"/>
<feComposite in2="hardAlpha" operator="arithmetic" k2="-1" k3="1"/>
<feColorMatrix type="matrix" values="0 0 0 0 0 0 0 0 0 0 0 0 0 0 0 0 0 0 0.6 0"/>
<feBlend mode="normal" in2="shape" result="effect1_innerShadow_861_403"/>
</filter>
<filter id="filter6_d_861_403" x="-2" y="-2" width="41.9307" height="41.9307" filterUnits="userSpaceOnUse" color-interpolation-filters="sRGB">
<feFlood flood-opacity="0" result="BackgroundImageFix"/>
<feColorMatrix in="SourceAlpha" type="matrix" values="0 0 0 0 0 0 0 0 0 0 0 0 0 0 0 0 0 0 127 0" result="hardAlpha"/>
<feOffset/>
<feGaussianBlur stdDeviation="1"/>
<feComposite in2="hardAlpha" operator="out"/>
<feColorMatrix type="matrix" values="0 0 0 0 0 0 0 0 0 0 0 0 0 0 0 0 0 0 0.6 0"/>
<feBlend mode="normal" in2="BackgroundImageFix" result="effect1_dropShadow_861_403"/>
<feBlend mode="normal" in="SourceGraphic" in2="effect1_dropShadow_861_403" result="shape"/>
</filter>
<linearGradient id="paint0_linear_861_403" x1="18.9654" y1="0" x2="18.9654" y2="37.9308" gradientUnits="userSpaceOnUse">
<stop stop-color="#FFBD02"/>
<stop offset="1" stop-color="#C39000"/>
</linearGradient>
<linearGradient id="paint1_linear_861_403" x1="28.3544" y1="0" x2="28.3544" y2="18.9031" gradientUnits="userSpaceOnUse">
<stop/>
<stop offset="1" stop-color="#323232"/>
</linearGradient>
<linearGradient id="paint2_linear_861_403" x1="9.45152" y1="18.9033" x2="9.45152" y2="37.8065" gradientUnits="userSpaceOnUse">
<stop/>
<stop offset="1" stop-color="#323232"/>
</linearGradient>
<linearGradient id="paint3_linear_861_403" x1="14.1823" y1="18.9033" x2="14.1823" y2="21.2639" gradientUnits="userSpaceOnUse">
<stop/>
<stop offset="1" stop-color="#323232"/>
</linearGradient>
<linearGradient id="paint4_linear_861_403" x1="9.45142" y1="0" x2="9.45142" y2="18.903" gradientUnits="userSpaceOnUse">
<stop stop-color="#FFBD00"/>
<stop offset="1" stop-color="#CF9A00"/>
</linearGradient>
<linearGradient id="paint5_linear_861_403" x1="28.355" y1="18.9028" x2="28.355" y2="37.8059" gradientUnits="userSpaceOnUse">
<stop stop-color="#FFBD00"/>
<stop offset="1" stop-color="#CF9A00"/>
</linearGradient>
<linearGradient id="paint6_linear_861_403" x1="23.6242" y1="18.9028" x2="23.6242" y2="21.2634" gradientUnits="userSpaceOnUse">
<stop stop-color="#FFBD00"/>
<stop offset="1" stop-color="#CF9A00"/>
</linearGradient>
<linearGradient id="paint7_linear_861_403" x1="24.8046" y1="18.9028" x2="24.8046" y2="25.9844" gradientUnits="userSpaceOnUse">
<stop/>
<stop offset="1" stop-color="#323232"/>
</linearGradient>
<linearGradient id="paint8_linear_861_403" x1="13.0019" y1="18.9028" x2="13.0019" y2="25.9844" gradientUnits="userSpaceOnUse">
<stop stop-color="#FFBD00"/>
<stop offset="1" stop-color="#CF9A00"/>
</linearGradient>
<linearGradient id="paint9_linear_861_403" x1="17.7227" y1="11.8213" x2="17.7227" y2="18.9028" gradientUnits="userSpaceOnUse">
<stop/>
<stop offset="1" stop-color="#323232"/>
</linearGradient>
<linearGradient id="paint10_linear_861_403" x1="28.3449" y1="11.8213" x2="28.3449" y2="18.9028" gradientUnits="userSpaceOnUse">
<stop stop-color="#FFBD00"/>
<stop offset="1" stop-color="#CF9A00"/>
</linearGradient>
<linearGradient id="paint11_linear_861_403" x1="9.46112" y1="11.8213" x2="9.46112" y2="18.9028" gradientUnits="userSpaceOnUse">
<stop/>
<stop offset="1" stop-color="#323232"/>
</linearGradient>
<linearGradient id="paint12_linear_861_403" x1="20.0835" y1="11.8213" x2="20.0835" y2="18.9028" gradientUnits="userSpaceOnUse">
<stop stop-color="#FFBD00"/>
<stop offset="1" stop-color="#CF9A00"/>
</linearGradient>
<linearGradient id="paint13_linear_861_403" x1="18.9654" y1="0" x2="18.9654" y2="37.9308" gradientUnits="userSpaceOnUse">
<stop stop-color="#FFBD02"/>
<stop offset="1" stop-color="#C39000"/>
</linearGradient>
<clipPath id="clip0_861_403">
<rect width="37.9308" height="37.9308" rx="18.9654" fill="white"/>
</clipPath>
</defs>
</svg>
