<svg width="3182" height="979" viewBox="0 0 3182 979" fill="none" xmlns="http://www.w3.org/2000/svg">
<path d="M1346.23 288.042H1475.74L1480.93 341.217C1494.74 320.364 1514.78 304.029 1541.02 292.213C1567.27 280.396 1596.63 274.488 1629.09 274.488C1686.43 274.488 1733.05 292.213 1768.97 327.663C1805.58 362.417 1823.89 414.897 1823.89 485.101V856.625H1665.36V520.551C1665.36 491.358 1658.45 468.419 1644.63 451.737C1631.51 435.055 1611.83 426.713 1585.58 426.713C1559.33 426.713 1539.3 435.055 1525.48 451.737C1512.36 467.724 1505.8 490.315 1505.8 519.509V856.625H1346.23V288.042Z" fill="url(#paint0_linear_939_19)"/>
<path d="M1905.78 288.042H2065.35V856.625H1905.78V288.042Z" fill="url(#paint1_linear_939_19)"/>
<path d="M2112.41 288.042H2279.22L2377.66 633.157L2474.02 288.042H2640.84L2454.33 856.625H2302.02L2112.41 288.042Z" fill="url(#paint2_linear_939_19)"/>
<path d="M2959.17 871.922C2891.47 871.922 2833.1 859.409 2784.07 834.383C2735.71 808.669 2698.76 773.563 2673.2 729.08C2647.64 684.594 2634.86 634.199 2634.86 577.897C2634.86 518.118 2646.61 465.291 2670.09 419.415C2693.58 373.539 2726.73 338.089 2769.56 313.066C2813.08 287.347 2863.5 274.488 2920.83 274.488C2978.86 274.488 3027.56 286.305 3066.93 309.938C3106.99 333.571 3136.35 365.198 3155 404.818C3174.34 443.743 3182 487.187 3182 535.148C3182 557.391 3180.27 584.152 3176.82 615.431H2798.57C2805.48 653.662 2823.44 683.899 2852.45 706.142C2881.46 727.69 2920.83 738.464 2970.57 738.464C3027.21 738.464 3083.16 723.866 3138.42 694.672V829.175C3116.32 842.384 3087.99 852.808 3053.46 860.449C3019.61 868.098 2988.18 871.922 2959.17 871.922ZM3025.49 495.528C3025.49 467.029 3015.47 444.438 2995.43 427.756C2975.4 410.379 2951.57 401.69 2923.94 401.69C2893.55 401.69 2868.34 409.684 2848.3 425.671C2828.27 440.963 2813.77 464.596 2804.79 496.571L3025.49 495.528Z" fill="url(#paint3_linear_939_19)"/>
<path d="M1905.78 122.375H2065.35V214.373H1905.78V122.375Z" fill="url(#paint4_linear_939_19)"/>
<path d="M438.799 292.51L0 0V775.284C0 801.25 10.3152 826.146 28.6765 844.51L134.503 950.326C152.864 968.682 177.767 979 203.734 979H489.538V713.643C489.538 687.578 518.59 672.032 540.278 686.49L979.077 979V203.718C979.077 177.754 968.758 152.852 950.401 134.492L844.576 28.6742C826.211 10.3145 801.313 0 775.345 0H489.538V265.357C489.538 291.422 460.487 306.968 438.799 292.51Z" fill="url(#paint5_linear_939_19)"/>
<defs>
<linearGradient id="paint0_linear_939_19" x1="489.539" y1="-0.0384615" x2="489.539" y2="979.038" gradientUnits="userSpaceOnUse">
<stop stop-color="#F7F7F7"/>
<stop offset="1" stop-color="#B8B8B8"/>
</linearGradient>
<linearGradient id="paint1_linear_939_19" x1="489.539" y1="-0.0384615" x2="489.539" y2="979.038" gradientUnits="userSpaceOnUse">
<stop stop-color="#F7F7F7"/>
<stop offset="1" stop-color="#B8B8B8"/>
</linearGradient>
<linearGradient id="paint2_linear_939_19" x1="489.539" y1="-0.0384615" x2="489.539" y2="979.038" gradientUnits="userSpaceOnUse">
<stop stop-color="#F7F7F7"/>
<stop offset="1" stop-color="#B8B8B8"/>
</linearGradient>
<linearGradient id="paint3_linear_939_19" x1="489.539" y1="-0.0384615" x2="489.539" y2="979.038" gradientUnits="userSpaceOnUse">
<stop stop-color="#F7F7F7"/>
<stop offset="1" stop-color="#B8B8B8"/>
</linearGradient>
<linearGradient id="paint4_linear_939_19" x1="489.539" y1="-0.0384615" x2="489.539" y2="979.038" gradientUnits="userSpaceOnUse">
<stop stop-color="#F7F7F7"/>
<stop offset="1" stop-color="#B8B8B8"/>
</linearGradient>
<linearGradient id="paint5_linear_939_19" x1="489.539" y1="-0.0384615" x2="489.539" y2="979.038" gradientUnits="userSpaceOnUse">
<stop stop-color="#F7F7F7"/>
<stop offset="1" stop-color="#B8B8B8"/>
</linearGradient>
</defs>
</svg>
