<svg width="237" height="40" viewBox="0 0 237 40" fill="none" xmlns="http://www.w3.org/2000/svg">
<path d="M5.32689 0C1.33172 -9.30197e-06 9.09725e-06 1.33335 0 5.33334V16C9.09725e-06 20 1.33174 21.3334 5.32689 21.3334C9.32206 21.3334 10.6538 22.6667 10.6538 26.6667C10.6538 30.6667 11.9855 32.0001 15.9807 32.0001C19.9758 32.0001 21.3075 30.6667 21.3076 26.6667C21.3076 22.6667 22.6392 21.3334 26.6344 21.3334C30.6296 21.3334 31.9613 22.6667 31.9613 26.6667C31.9613 30.6667 33.293 32.0001 37.2882 32.0001C41.2833 32.0001 42.6151 30.6667 42.6151 26.6667C42.6151 22.6667 43.9468 21.3334 47.942 21.3334C51.9371 21.3334 53.2688 20 53.2688 16V5.33334C53.2688 1.33335 51.9371 9.30217e-06 47.942 0C43.9468 -9.30197e-06 42.6151 1.33335 42.6151 5.33334V16C42.6151 20 41.2833 21.3334 37.2882 21.3334C33.293 21.3334 31.9613 20 31.9613 16V5.33334C31.9613 1.33335 30.6296 9.30217e-06 26.6344 0C22.6392 -9.30197e-06 21.3076 1.33335 21.3076 5.33334V16C21.3076 20 19.9758 21.3334 15.9807 21.3334C11.9855 21.3334 10.6538 20 10.6538 16V5.33334C10.6538 1.33335 9.32206 9.30217e-06 5.32689 0Z" fill="url(#paint0_linear_858_227)"/>
<path d="M69 39.4572V20.5C69 13.8191 73.5337 9.47645 80.0405 9.47645C86.6312 9.47645 91.2489 13.9861 91.2489 20.5418C91.2489 27.5985 85.9595 31.1895 80.922 31.1895C77.9415 31.1895 75.4648 29.9368 73.9955 27.6403V39.4572H69ZM80.0825 26.5546C83.7346 26.5546 86.2114 23.9657 86.2114 20.333C86.2114 16.7002 83.7346 14.1113 80.0825 14.1113C76.4303 14.1113 73.9955 16.7002 73.9955 20.333C73.9955 23.9657 76.4303 26.5546 80.0825 26.5546Z" fill="url(#paint1_linear_858_227)"/>
<path d="M104.867 31.1895C98.3181 31.1895 93.7004 26.5964 93.7004 20.333C93.7004 14.0696 98.3181 9.47645 104.867 9.47645C111.416 9.47645 116.033 14.0696 116.033 20.333C116.033 26.5964 111.416 31.1895 104.867 31.1895ZM104.867 26.5546C108.519 26.5546 110.954 23.9657 110.954 20.333C110.954 16.7002 108.519 14.1113 104.867 14.1113C101.215 14.1113 98.7378 16.7002 98.7378 20.333C98.7378 23.9657 101.215 26.5546 104.867 26.5546Z" fill="url(#paint2_linear_858_227)"/>
<path d="M120.015 30.6467V1H125.01V30.6467H120.015Z" fill="url(#paint3_linear_858_227)"/>
<path d="M139.996 40C135.168 40 131.18 37.7869 130.005 32.9015H135C135.84 34.8223 137.477 35.6991 139.996 35.6991C143.396 35.6991 145.327 34.0707 145.327 30.0621V27.4732C144.068 29.7281 141.885 30.939 139.156 30.939C134.37 30.939 129.837 27.849 129.837 20.5V10.0193H134.832V20.5C134.832 24.4251 136.931 26.3041 140.08 26.3041C143.144 26.3041 145.327 24.3415 145.327 20.5V10.0193H150.322V29.9368C150.322 37.1188 145.747 40 139.996 40Z" fill="url(#paint4_linear_858_227)"/>
<path d="M165.417 31.1895C158.868 31.1895 154.25 26.5964 154.25 20.333C154.25 14.0696 158.868 9.47645 165.417 9.47645C171.042 9.47645 175.156 12.8587 176.163 17.7441H171.126C170.244 15.531 168.145 14.1113 165.417 14.1113C161.764 14.1113 159.288 16.7002 159.288 20.333C159.288 23.9657 161.764 26.5546 165.417 26.5546C168.145 26.5546 170.244 25.1349 171.126 22.9218H176.163C175.156 27.8073 171.042 31.1895 165.417 31.1895Z" fill="url(#paint5_linear_858_227)"/>
<path d="M180.112 30.6467V1H185.108V12.9004C186.493 10.6874 188.634 9.47645 191.279 9.47645C196.064 9.47645 200.598 12.5664 200.598 19.9154V30.6467H195.603V19.9154C195.603 15.9904 193.504 14.1113 190.355 14.1113C187.291 14.1113 185.108 16.0739 185.108 19.9154V30.6467H180.112Z" fill="url(#paint6_linear_858_227)"/>
<path d="M204.694 30.6467V19.9154C204.694 13.0257 208.808 9.47645 214.937 9.47645C221.066 9.47645 225.18 12.9839 225.18 19.9154V30.6467H220.184V19.9154C220.184 15.9904 218.085 14.1113 214.937 14.1113C211.788 14.1113 209.689 15.9904 209.689 19.9154V30.6467H204.694Z" fill="url(#paint7_linear_858_227)"/>
<path d="M230.004 30.6467V1H235V30.6467H230.004Z" fill="url(#paint8_linear_858_227)"/>
<defs>
<linearGradient id="paint0_linear_858_227" x1="26.6344" y1="0" x2="26.6344" y2="32.0001" gradientUnits="userSpaceOnUse">
<stop stop-color="white"/>
<stop offset="1" stop-color="#BEBEBE"/>
</linearGradient>
<linearGradient id="paint1_linear_858_227" x1="152" y1="1" x2="152" y2="40" gradientUnits="userSpaceOnUse">
<stop stop-color="white"/>
<stop offset="1" stop-color="#BEBEBE"/>
</linearGradient>
<linearGradient id="paint2_linear_858_227" x1="152" y1="1" x2="152" y2="40" gradientUnits="userSpaceOnUse">
<stop stop-color="white"/>
<stop offset="1" stop-color="#BEBEBE"/>
</linearGradient>
<linearGradient id="paint3_linear_858_227" x1="152" y1="1" x2="152" y2="40" gradientUnits="userSpaceOnUse">
<stop stop-color="white"/>
<stop offset="1" stop-color="#BEBEBE"/>
</linearGradient>
<linearGradient id="paint4_linear_858_227" x1="152" y1="1" x2="152" y2="40" gradientUnits="userSpaceOnUse">
<stop stop-color="white"/>
<stop offset="1" stop-color="#BEBEBE"/>
</linearGradient>
<linearGradient id="paint5_linear_858_227" x1="152" y1="1" x2="152" y2="40" gradientUnits="userSpaceOnUse">
<stop stop-color="white"/>
<stop offset="1" stop-color="#BEBEBE"/>
</linearGradient>
<linearGradient id="paint6_linear_858_227" x1="152" y1="1" x2="152" y2="40" gradientUnits="userSpaceOnUse">
<stop stop-color="white"/>
<stop offset="1" stop-color="#BEBEBE"/>
</linearGradient>
<linearGradient id="paint7_linear_858_227" x1="152" y1="1" x2="152" y2="40" gradientUnits="userSpaceOnUse">
<stop stop-color="white"/>
<stop offset="1" stop-color="#BEBEBE"/>
</linearGradient>
<linearGradient id="paint8_linear_858_227" x1="152" y1="1" x2="152" y2="40" gradientUnits="userSpaceOnUse">
<stop stop-color="white"/>
<stop offset="1" stop-color="#BEBEBE"/>
</linearGradient>
</defs>
</svg>
